<svg width="48" height="48" viewBox="0 0 48 48" fill="none" xmlns="http://www.w3.org/2000/svg">
<path d="M37.942 22.3865L36.9462 21.9883C32.266 32.519 13.6475 26.1168 12.5271 29.2496C12.3404 31.3657 22.6947 29.652 30.097 30.0107C32.3543 30.12 33.4863 31.824 32.5278 34.6014L34.4157 34.6072C36.5935 27.818 43.5438 31.2828 43.8342 29.0422C43.357 27.569 35.8465 29.0422 37.942 22.3865Z" fill="white"/>
<path d="M33.0623 33.4404C33.3609 32.4446 33.2614 31.4488 32.7636 30.8513C32.2656 30.2537 31.5684 29.8554 30.6722 29.7559L13.3444 29.5566C13.2448 29.5566 13.1453 29.457 13.0457 29.457C12.9461 29.3574 12.9461 29.2579 13.0457 29.1583C13.1453 28.9592 13.2448 28.8594 13.4439 28.8594L30.8713 28.6603C32.9627 28.5608 35.1536 26.8678 35.9501 24.8762L36.9461 22.287C36.9461 22.1872 37.0457 22.0877 36.9461 21.9881C35.8506 16.9093 31.2698 13.125 25.8921 13.125C20.9128 13.125 16.6307 16.3118 15.1369 20.7932C14.1411 20.0961 12.9461 19.6976 11.5519 19.7974C9.16181 19.9965 7.26975 21.9881 6.97088 24.3782C6.87131 24.9757 6.97087 25.5733 7.07062 26.1707C3.18675 26.2703 0 29.457 0 33.4404C0 33.8387 0 34.1376 0.0995625 34.5358C0.0995625 34.7351 0.298687 34.8347 0.398438 34.8347H32.3651C32.5642 34.8347 32.7636 34.7351 32.7636 34.5358L33.0623 33.4404Z" fill="#F4811F"/>
<path d="M38.5395 22.2852H38.0415C37.9419 22.2852 37.8424 22.3847 37.7428 22.4843L37.0457 24.8743C36.747 25.8702 36.8465 26.8662 37.3445 27.4635C37.8424 28.0611 38.5395 28.4593 39.4357 28.5591L43.1205 28.7582C43.2201 28.7582 43.3196 28.8578 43.4192 28.8578C43.5187 28.9573 43.5187 29.0569 43.4192 29.1565C43.3196 29.3558 43.2201 29.4553 43.0207 29.4553L39.2366 29.6545C37.1452 29.754 34.9545 31.447 34.1578 33.4386L33.9585 34.335C33.8589 34.4346 33.9585 34.6337 34.1578 34.6337H47.3031C47.5022 34.6337 47.6017 34.5342 47.6017 34.335C47.8009 33.5383 48 32.6421 48 31.7457C48 26.5673 43.7179 22.2852 38.5395 22.2852Z" fill="#FAAD3F"/>
</svg>
