<svg width="48" height="48" viewBox="0 0 48 48" fill="none" xmlns="http://www.w3.org/2000/svg">
<path d="M8.69995 36.8992L8.95495 36.5437L20.985 13.7227L21.0105 13.4812L15.708 3.52118C15.6109 3.33904 15.459 3.19204 15.2738 3.10097C15.0886 3.00991 14.8794 2.97938 14.6759 3.01371C14.4724 3.04805 14.2848 3.1455 14.1397 3.29229C13.9947 3.43908 13.8994 3.62778 13.8675 3.83168L8.69995 36.8992Z" fill="#FFC24A"/>
<path d="M8.84985 36.6303L9.04185 36.2553L20.9474 13.6713L15.6584 3.67227C15.5711 3.49838 15.4299 3.35743 15.2559 3.27054C15.0818 3.18365 14.8843 3.1555 14.6929 3.1903C14.5015 3.2251 14.3265 3.32098 14.1942 3.46358C14.0618 3.60617 13.9793 3.78781 13.9589 3.98127L8.84985 36.6303Z" fill="#FFA712"/>
<path d="M24.8759 21.0124L28.8239 16.9624L24.8744 9.43088C24.7875 9.26879 24.6583 9.13331 24.5004 9.03886C24.3426 8.94441 24.1621 8.89453 23.9782 8.89453C23.7943 8.89453 23.6138 8.94441 23.4559 9.03886C23.2981 9.13331 23.1689 9.26879 23.0819 9.43088L20.9714 13.4539V13.7974L24.8759 21.0124Z" fill="#F4BD62"/>
<path d="M24.8055 20.8508L28.644 16.9208L24.8055 9.60082C24.7427 9.44237 24.6354 9.30548 24.4965 9.20665C24.3576 9.10782 24.1931 9.05127 24.0228 9.04381C23.8525 9.03636 23.6837 9.07833 23.5368 9.16465C23.3898 9.25097 23.2709 9.37796 23.1945 9.53032L21.0735 13.6238L21.0105 13.8323L24.8055 20.8508Z" fill="#FFA50E"/>
<path d="M8.70288 36.9011L8.81838 36.7841L9.23688 36.6146L24.6269 21.2816L24.8219 20.7506L20.9834 13.4336L8.70288 36.9011Z" fill="#F6820C"/>
<path d="M25.368 44.6325L39.3 36.864L35.3189 12.3675C35.2904 12.1948 35.2148 12.0333 35.1005 11.9008C34.9862 11.7682 34.8376 11.6697 34.671 11.6161C34.5044 11.5625 34.3262 11.5558 34.1561 11.5968C33.9859 11.6378 33.8304 11.7249 33.7065 11.8485L8.69995 36.8985L22.5495 44.631C22.98 44.8713 23.4649 44.9974 23.958 44.9974C24.451 44.9974 24.9359 44.8713 25.3664 44.631" fill="#FDE068"/>
<path d="M39.1724 36.7998L35.2244 12.4878C35.2174 12.3226 35.1616 12.1632 35.064 12.0298C34.9664 11.8963 34.8314 11.7948 34.6761 11.7382C34.5208 11.6815 34.3522 11.6721 34.1916 11.7113C34.031 11.7505 33.8856 11.8364 33.7739 11.9583L8.84985 36.8523L22.5464 44.5023C22.9735 44.7406 23.4545 44.8657 23.9436 44.8657C24.4327 44.8657 24.9137 44.7406 25.3409 44.5023L39.1724 36.7998Z" fill="#FCCA3F"/>
<path d="M25.368 44.4008C24.9374 44.641 24.4525 44.7671 23.9595 44.7671C23.4664 44.7671 22.9815 44.641 22.551 44.4008L8.81395 36.7837L8.69995 36.9008L22.5495 44.6332C22.98 44.8735 23.4649 44.9996 23.958 44.9996C24.451 44.9996 24.9359 44.8735 25.3664 44.6332L39.3 36.8662L39.2654 36.6562L25.368 44.4008Z" fill="#EEAB37"/>
</svg>
