<svg width="48" height="48" viewBox="0 0 48 48" fill="none" xmlns="http://www.w3.org/2000/svg">
<path d="M26 12C26 10.8954 26.8954 10 28 10H34C35.1046 10 36 10.8954 36 12C36 13.1046 35.1046 14 34 14H30.4C30.179 14 30 14.1791 30 14.4V17.6C30 17.8209 30.179 18 30.4 18H34C35.1046 18 36 18.8954 36 20V26C36 26.5304 35.7892 27.0392 35.4142 27.4142L29.4142 33.4142C28.6332 34.1952 27.3668 34.1952 26.5858 33.4142C25.8048 32.6332 25.8048 31.3668 26.5858 30.5858L31.8828 25.2888C31.9578 25.2138 32 25.112 32 25.0058V22.4C32 22.179 31.821 22 31.6 22H28C26.8954 22 26 21.1046 26 20V12Z" fill="#FFFF00"/>
<path d="M22 12C22 10.8954 21.1046 10 20 10C18.8954 10 18 10.8954 18 12V26.2058C18 26.5622 17.5691 26.7408 17.3172 26.4888L16.1172 25.2888C16.0421 25.2138 16 25.112 16 25.0058V24C16 22.8954 15.1046 22 14 22C12.8954 22 12 22.8954 12 24V26C12 26.5304 12.2107 27.0392 12.5858 27.4142L18.5858 33.4142C19.1578 33.9862 20.018 34.1574 20.7654 33.8478C21.5128 33.5382 22 32.809 22 32V12Z" fill="#FFFF00"/>
<path fill-rule="evenodd" clip-rule="evenodd" d="M2.67227 8.84852C2.15589 5.23392 4.96067 2 8.61197 2H39.3879C43.0391 2 45.8439 5.23392 45.3275 8.84852L42.1895 30.8148C41.9865 32.2356 41.2809 33.5366 40.2009 34.4818L27.9509 45.2004C25.6887 47.1798 22.3111 47.1798 20.0489 45.2004L7.79897 34.4818C6.71883 33.5366 6.01327 32.2356 5.81031 30.8148L2.67227 8.84852ZM8.61197 6C7.39487 6 6.45995 7.07798 6.63207 8.28284L9.77011 30.249C9.83777 30.7226 10.073 31.1564 10.433 31.4714L22.6829 42.19C23.4369 42.8498 24.5629 42.8498 25.3169 42.19L37.5669 31.4714C37.9269 31.1564 38.1621 30.7226 38.2297 30.249L41.3677 8.28284C41.5399 7.07798 40.6049 6 39.3879 6H8.61197Z" fill="#FFFF00"/>
</svg>
