<svg width="48" height="48" viewBox="0 0 48 48" fill="none" xmlns="http://www.w3.org/2000/svg">
<g clip-path="url(#clip0_2569_182)">
<g filter="url(#filter0_f_2569_182)">
<path d="M43.0577 40.5742C43.0577 43.3982 34.4962 45.6992 23.9324 45.6992C13.3687 45.6992 4.80713 43.4131 4.80713 40.5742C4.80713 37.7502 13.3687 35.4492 23.9324 35.4492C34.4962 35.4492 43.0428 37.7502 43.0577 40.5742Z" fill="black" fill-opacity="0.2"/>
</g>
<path d="M13.4582 35.0615C11.6055 32.4019 11.2469 23.7358 15.565 18.4016C17.7017 15.8466 18.2545 14.0685 18.4189 11.6629C18.5384 8.92861 16.4914 0.785417 24.2013 0.17281C32.0157 -0.454739 31.5824 7.25515 31.5376 11.3342C31.5077 14.7708 34.0627 16.7281 35.8259 19.4176C39.0682 24.3484 38.7992 32.8352 35.2132 37.4372C30.671 43.1898 26.7862 40.6945 24.2013 40.9037C19.3602 41.1876 19.1958 43.7576 13.4582 35.0615Z" fill="black"/>
<path d="M32.3148 19.9244C33.6595 21.1645 37.1409 26.7079 31.6275 30.1743C29.685 31.3846 33.3607 35.9866 35.1238 33.7603C38.2466 29.756 36.2594 23.3609 34.3767 21.0749C33.1216 19.4612 31.1792 18.8336 32.3148 19.9244Z" fill="url(#paint0_linear_2569_182)"/>
<path d="M31.9412 19.1798C34.1525 20.9728 38.1718 27.2482 32.2998 31.3423C30.3723 32.6123 34.0031 36.6316 36.0501 34.5846C43.1474 27.4425 35.8708 19.2395 33.3606 16.4156C31.1194 13.9502 29.1322 16.9833 31.9412 19.1798Z" fill="black" stroke="black" stroke-width="0.9773"/>
<path d="M28.7587 4.0716C28.6839 6.1186 26.4278 7.89666 23.7233 8.06101C21.0189 8.22537 18.8972 6.67144 18.9719 4.62444C19.0466 2.57743 21.3028 0.79938 24.0072 0.635022C26.7117 0.485605 28.8334 2.02459 28.7587 4.0716Z" fill="url(#paint1_linear_2569_182)"/>
<path d="M22.2887 8.94236C22.3635 10.2722 21.7359 11.3928 20.8693 11.4376C20.0027 11.4824 19.2407 10.4515 19.1659 9.12166C19.0912 7.79186 19.7188 6.67123 20.5854 6.62641C21.452 6.58158 22.214 7.61256 22.2887 8.94236Z" fill="url(#paint2_linear_2569_182)"/>
<path d="M23.8577 9.0497C23.8876 10.5887 24.8887 11.8139 26.084 11.784C27.2793 11.7541 28.2207 10.4841 28.1908 8.93017C28.1609 7.39118 27.1598 6.16596 25.9645 6.19585C24.7692 6.22573 23.8129 7.51071 23.8577 9.0497Z" fill="url(#paint3_linear_2569_182)"/>
<path d="M24.8439 9.39123C24.829 10.2429 25.2473 10.9302 25.8002 10.9302C26.3381 10.9302 26.8012 10.2429 26.8162 9.40618C26.8311 8.5545 26.4128 7.86719 25.8599 7.86719C25.3071 7.86719 24.8588 8.5545 24.8439 9.39123Z" fill="black"/>
<path d="M21.3924 9.40572C21.4671 10.108 21.1981 10.7056 20.8097 10.7654C20.4212 10.8102 20.0476 10.2873 19.9729 9.58502C19.8982 8.88277 20.1672 8.2851 20.5557 8.22533C20.9441 8.18051 21.3177 8.70347 21.3924 9.40572Z" fill="black"/>
<path d="M25.068 8.91399C25.0231 9.39213 25.2473 9.78061 25.561 9.81049C25.8748 9.84037 26.1736 9.46683 26.2185 9.00364C26.2633 8.52551 26.0392 8.13703 25.7254 8.10715C25.4116 8.07726 25.1128 8.4508 25.068 8.91399Z" fill="url(#paint4_linear_2569_182)"/>
<path d="M21.0637 9.03372C21.1085 9.4222 20.9442 9.76586 20.7051 9.79574C20.466 9.82563 20.2419 9.52679 20.1971 9.12337C20.1523 8.73489 20.3166 8.39123 20.5557 8.36135C20.7947 8.33146 21.0189 8.64524 21.0637 9.03372Z" fill="url(#paint5_linear_2569_182)"/>
<path d="M16.357 23.7059C17.4178 21.3003 19.674 17.0718 19.7188 13.7996C19.7188 11.1998 27.5034 10.5722 28.131 13.1721C28.7585 15.7719 30.3423 19.6567 31.3584 21.5394C32.3744 23.4071 35.3179 29.3688 32.1802 34.5685C29.3562 39.1705 20.7946 42.8163 16.2225 33.9409C14.6686 30.8629 14.9525 27.0528 16.357 23.7059Z" fill="url(#paint6_linear_2569_182)"/>
<path d="M15.4006 21.9115C14.4892 23.6298 12.6066 28.1422 17.2086 30.6076C22.1543 33.2373 22.1393 38.6312 16.1926 36.0613C10.7538 33.7453 13.1594 24.362 14.6835 22.1207C15.6696 20.5519 17.1638 18.6244 15.4006 21.9115Z" fill="url(#paint7_linear_2569_182)"/>
<path d="M16.1777 19.9712C14.7284 22.3319 11.2619 27.8902 15.9088 30.7889C22.1544 34.6289 20.3912 38.454 14.6835 35.0025C6.64494 30.1912 13.7123 20.4792 16.9248 16.7737C20.6004 12.6199 17.627 17.5357 16.1777 19.9712Z" fill="black" stroke="black" stroke-width="1.25"/>
<path d="M30.2526 24.6179C30.2526 27.2477 27.7275 30.6544 23.3944 30.6245C18.9269 30.6544 17.0293 27.2477 17.0293 24.6179C17.0293 21.9882 19.9877 19.8516 23.6335 19.8516C27.2942 19.8665 30.2526 21.9882 30.2526 24.6179Z" fill="url(#paint8_linear_2569_182)"/>
<path d="M27.8919 16.3545C27.8471 19.0739 26.069 19.7164 23.8278 19.7164C21.5866 19.7164 19.9579 19.3129 19.7637 16.3545C19.7637 14.5017 21.5866 13.4259 23.8278 13.4259C26.069 13.411 27.8919 14.4868 27.8919 16.3545Z" fill="url(#paint9_linear_2569_182)"/>
<path d="M14.3398 20.5387C15.8041 18.3124 18.897 14.8908 14.9225 21.0168C11.6952 26.0671 13.7272 29.3094 14.7731 30.2059C17.7913 32.8954 17.6718 34.7034 15.2961 33.2839C10.201 30.2508 11.2618 25.1407 14.3398 20.5387Z" fill="url(#paint10_linear_2569_182)"/>
<path d="M35.542 21.4478C34.2719 18.833 30.2377 12.1989 35.7362 19.9088C40.7417 26.8865 37.2304 31.7426 36.6028 32.2207C35.9753 32.6988 33.8685 33.67 34.4811 31.9816C35.1087 30.2932 38.2165 27.0957 35.542 21.4478Z" fill="url(#paint11_linear_2569_182)"/>
<path d="M13.2343 42.0689C9.88734 40.2909 5.03131 42.4126 6.79443 37.6014C7.15303 36.5106 6.27147 34.8671 6.83925 33.8062C7.51162 32.5063 8.96096 32.7902 9.82758 31.9236C10.6793 31.0271 11.2172 29.4731 12.8159 29.7122C14.3997 29.9513 15.4606 31.8937 16.5663 34.2843C17.388 35.9877 20.2867 38.3933 20.0925 40.3058C19.8534 43.2344 16.5214 43.7872 13.2343 42.0689Z" fill="url(#paint12_linear_2569_182)" stroke="#E68C3F" stroke-width="6.25"/>
<path d="M37.604 30.7738C37.096 31.73 34.9743 33.269 33.5549 32.8656C32.1205 32.4771 31.463 30.2956 31.7469 28.6371C32.0159 26.7844 33.5549 26.6798 35.4973 27.6061C37.5891 28.6371 38.2166 29.5037 37.604 30.7738Z" fill="url(#paint13_linear_2569_182)"/>
<path d="M36.4386 41.2482C38.889 38.2748 44.3427 38.8874 40.667 34.8084C39.8901 33.9268 40.1291 32.0442 39.1729 31.2373C38.0522 30.2512 36.8121 31.058 35.6765 30.55C34.541 29.9972 33.3456 28.9363 31.9561 29.6834C30.5665 30.4454 30.4171 32.4177 30.2826 35.0175C30.1631 36.8852 28.4597 40.008 29.3712 41.7263C30.686 44.3859 34.1077 44.0273 36.4386 41.2482Z" fill="url(#paint14_linear_2569_182)" stroke="#E68C3F" stroke-width="6.2507"/>
<path d="M35.3777 37.2738C39.1729 31.6707 36.3489 31.7155 35.3926 31.2822C34.4364 30.834 33.4353 29.9524 32.3146 30.565C31.194 31.1926 31.1343 32.8063 31.1044 34.928C31.0595 36.452 29.7895 39.0071 30.5515 40.4265C31.4779 42.085 33.7192 39.6794 35.3777 37.2738Z" fill="url(#paint15_linear_2569_182)"/>
<path d="M12.4571 38.081C6.77931 34.4054 9.43892 33.1503 10.2906 32.5676C11.3216 31.8205 11.3365 30.3861 12.6065 30.5205C13.8766 30.655 14.6237 32.2239 15.4753 34.1663C16.1029 35.5559 18.2844 37.4086 18.12 39.0074C17.9108 40.89 14.9076 39.6499 12.4571 38.081Z" fill="url(#paint16_linear_2569_182)"/>
<path d="M37.2752 30.7272C36.8269 31.5042 35.0041 32.7294 33.7938 32.4007C32.5536 32.0869 31.9859 30.3387 32.2399 29.0239C32.464 27.5297 33.7938 27.455 35.4673 28.2021C37.2453 29.0089 37.7982 29.6963 37.2752 30.7272Z" fill="black"/>
<path d="M36.05 30.2932C35.7661 30.8311 34.5708 31.6828 33.734 31.4587C32.8973 31.2346 32.4789 30.0243 32.6134 29.1129C32.7329 28.0819 33.6294 28.0221 34.765 28.5301C35.9902 29.0979 36.3787 29.576 36.05 30.2932Z" fill="url(#paint17_linear_2569_182)"/>
<path d="M20.6003 10.7961C21.198 10.2433 22.6473 8.55485 25.3966 10.318C25.9046 10.6467 26.323 10.6766 27.2942 11.0949C29.2515 11.9018 28.3252 13.8442 26.2333 14.5016C25.3368 14.7855 24.53 15.8763 22.9163 15.7717C21.5267 15.697 21.1681 14.7855 20.3164 14.2924C18.8073 13.4408 18.5832 12.2903 19.405 11.6777C20.2268 11.065 20.5406 10.8409 20.6003 10.7961Z" fill="url(#paint18_linear_2569_182)" stroke="#E68C3F" stroke-width="3.75"/>
<path d="M27.3242 12.3633C26.5024 12.4081 24.7244 14.1862 22.8567 14.1862C20.989 14.1862 19.8684 12.4529 19.5845 12.4529" stroke="#E68C3F" stroke-width="2.5"/>
<path d="M21.5268 10.6468C21.8256 10.3779 22.767 9.64576 24.0071 10.3928C24.2761 10.5423 24.545 10.7066 24.9335 10.9307C25.7254 11.3939 25.3369 12.0663 24.3807 12.4847C23.9474 12.664 23.2302 13.0524 22.6923 13.0226C22.0946 12.9628 21.6912 12.5743 21.3027 12.3203C20.5705 11.8422 20.6154 11.4388 20.959 11.125C21.213 10.8859 21.4969 10.6618 21.5268 10.6468Z" fill="url(#paint19_linear_2569_182)"/>
</g>
<defs>
<filter id="filter0_f_2569_182" x="-8.19287" y="22.4492" width="64.2505" height="36.25" filterUnits="userSpaceOnUse" color-interpolation-filters="sRGB">
<feFlood flood-opacity="0" result="BackgroundImageFix"/>
<feBlend mode="normal" in="SourceGraphic" in2="BackgroundImageFix" result="shape"/>
<feGaussianBlur stdDeviation="6.5" result="effect1_foregroundBlur_2569_182"/>
</filter>
<linearGradient id="paint0_linear_2569_182" x1="306.844" y1="1746.33" x2="404.937" y2="646.531" gradientUnits="userSpaceOnUse">
<stop stop-color="#FFEED7"/>
<stop offset="1" stop-color="#BDBFC2"/>
</linearGradient>
<linearGradient id="paint1_linear_2569_182" x1="551.643" y1="18.5306" x2="504.836" y2="677.378" gradientUnits="userSpaceOnUse">
<stop stop-color="white" stop-opacity="0.8"/>
<stop offset="1" stop-color="white" stop-opacity="0"/>
</linearGradient>
<linearGradient id="paint2_linear_2569_182" x1="181.733" y1="431.452" x2="152.905" y2="54.8189" gradientUnits="userSpaceOnUse">
<stop stop-color="#FFEED7"/>
<stop offset="1" stop-color="#BDBFC2"/>
</linearGradient>
<linearGradient id="paint3_linear_2569_182" x1="240.296" y1="484.02" x2="240.285" y2="83.3879" gradientUnits="userSpaceOnUse">
<stop stop-color="#FFEED7"/>
<stop offset="1" stop-color="#BDBFC2"/>
</linearGradient>
<linearGradient id="paint4_linear_2569_182" x1="87.6918" y1="13.3993" x2="67.9462" y2="167.004" gradientUnits="userSpaceOnUse">
<stop stop-color="white" stop-opacity="0.65"/>
<stop offset="1" stop-color="white" stop-opacity="0"/>
</linearGradient>
<linearGradient id="paint5_linear_2569_182" x1="60.374" y1="16.2342" x2="81.6315" y2="140.642" gradientUnits="userSpaceOnUse">
<stop stop-color="white" stop-opacity="0.65"/>
<stop offset="1" stop-color="white" stop-opacity="0"/>
</linearGradient>
<linearGradient id="paint6_linear_2569_182" x1="935.529" y1="2514.81" x2="935.529" y2="1143.6" gradientUnits="userSpaceOnUse">
<stop stop-color="#FFEED7"/>
<stop offset="1" stop-color="#BDBFC2"/>
</linearGradient>
<linearGradient id="paint7_linear_2569_182" x1="439.677" y1="1682.16" x2="89.6859" y2="489.028" gradientUnits="userSpaceOnUse">
<stop stop-color="#FFEED7"/>
<stop offset="1" stop-color="#BDBFC2"/>
</linearGradient>
<linearGradient id="paint8_linear_2569_182" x1="676.099" y1="162.369" x2="679.609" y2="1039.78" gradientUnits="userSpaceOnUse">
<stop stop-color="white" stop-opacity="0.8"/>
<stop offset="1" stop-color="white" stop-opacity="0"/>
</linearGradient>
<linearGradient id="paint9_linear_2569_182" x1="425.585" y1="248.235" x2="429.479" y2="597.111" gradientUnits="userSpaceOnUse">
<stop stop-color="white" stop-opacity="0.65"/>
<stop offset="1" stop-color="white" stop-opacity="0"/>
</linearGradient>
<linearGradient id="paint10_linear_2569_182" x1="276.454" y1="54.8583" x2="276.454" y2="1335.16" gradientUnits="userSpaceOnUse">
<stop stop-color="white" stop-opacity="0.65"/>
<stop offset="1" stop-color="white" stop-opacity="0"/>
</linearGradient>
<linearGradient id="paint11_linear_2569_182" x1="305.103" y1="54.0973" x2="304.626" y2="1210.91" gradientUnits="userSpaceOnUse">
<stop stop-color="white" stop-opacity="0.65"/>
<stop offset="1" stop-color="white" stop-opacity="0"/>
</linearGradient>
<linearGradient id="paint12_linear_2569_182" x1="737.937" y1="682.829" x2="548.066" y2="1341.93" gradientUnits="userSpaceOnUse">
<stop stop-color="#FFA63F"/>
<stop offset="1" stop-color="#FFFF00"/>
</linearGradient>
<linearGradient id="paint13_linear_2569_182" x1="353.547" y1="870.28" x2="326.424" y2="-354.054" gradientUnits="userSpaceOnUse">
<stop stop-color="#FFEED7"/>
<stop offset="1" stop-color="#BDBFC2"/>
</linearGradient>
<linearGradient id="paint14_linear_2569_182" x1="420.528" y1="509.61" x2="937.508" y2="1242.03" gradientUnits="userSpaceOnUse">
<stop stop-color="#FFA63F"/>
<stop offset="1" stop-color="#FFFF00"/>
</linearGradient>
<linearGradient id="paint15_linear_2569_182" x1="446.945" y1="-152.472" x2="270.265" y2="712.452" gradientUnits="userSpaceOnUse">
<stop stop-color="white" stop-opacity="0.65"/>
<stop offset="1" stop-color="white" stop-opacity="0"/>
</linearGradient>
<linearGradient id="paint16_linear_2569_182" x1="448.728" y1="45.2916" x2="483.65" y2="1015.7" gradientUnits="userSpaceOnUse">
<stop stop-color="white" stop-opacity="0.65"/>
<stop offset="1" stop-color="white" stop-opacity="0"/>
</linearGradient>
<linearGradient id="paint17_linear_2569_182" x1="188.189" y1="43.0737" x2="229.102" y2="333.45" gradientUnits="userSpaceOnUse">
<stop stop-color="white" stop-opacity="0.65"/>
<stop offset="1" stop-color="white" stop-opacity="0"/>
</linearGradient>
<linearGradient id="paint18_linear_2569_182" x1="488.231" y1="119.475" x2="491.641" y2="630.082" gradientUnits="userSpaceOnUse">
<stop stop-color="#FFA63F"/>
<stop offset="1" stop-color="#FFFF00"/>
</linearGradient>
<linearGradient id="paint19_linear_2569_182" x1="253.471" y1="18.6159" x2="252.548" y2="288.607" gradientUnits="userSpaceOnUse">
<stop stop-color="white" stop-opacity="0.65"/>
<stop offset="1" stop-color="white" stop-opacity="0"/>
</linearGradient>
<clipPath id="clip0_2569_182">
<rect width="48" height="48" fill="white"/>
</clipPath>
</defs>
</svg>
