<svg width="48" height="48" viewBox="0 0 48 48" fill="none" xmlns="http://www.w3.org/2000/svg">
<path fill-rule="evenodd" clip-rule="evenodd" d="M27.7321 3C27.4438 3.00328 27.158 3.05395 26.8861 3.15C29.3026 4.737 26.4661 7.041 27.7861 9C27.6937 8.34425 27.7978 7.67583 28.085 7.07916C28.3723 6.48248 28.8299 5.9843 29.4001 5.6475C29.8276 5.292 30.1006 5.1645 30.0091 4.5765C29.8651 3.6135 28.5811 3 27.7321 3ZM31.1821 3.621C30.8491 5.3055 30.4321 5.367 29.1976 6.4515C28.7156 6.83073 28.3754 7.3612 28.2317 7.95741C28.088 8.55363 28.1493 9.18085 28.4056 9.738C23.3056 7.758 16.7686 6.561 11.9761 9.987C10.2526 11.2185 9.19958 12.987 7.07408 13.7085C5.70008 14.178 4.35008 14.04 3.49208 15.402C3.17719 15.7953 3.0127 16.2879 3.02809 16.7915C3.04348 17.295 3.23776 17.7767 3.57608 18.15C3.83108 18.4125 4.32608 18.5805 4.53008 18.8475C4.64858 18.9975 4.64558 19.1475 4.75808 19.347C4.95643 19.8122 5.24382 20.2341 5.60408 20.589C5.82308 20.7705 6.58208 20.9475 6.71108 21.141C6.87158 21.3825 6.45158 22.341 6.80408 22.491C7.04258 22.6005 7.73708 21.375 7.80458 21.267C7.66658 22.2315 7.48508 23.943 8.56958 22.518C9.08408 21.8415 9.11558 21.618 9.98108 21.468C11.6892 21.1754 13.4395 21.2401 15.1214 21.658C16.8033 22.0758 18.3804 22.8377 19.753 23.8957C21.1257 24.9536 22.2642 26.2846 23.0966 27.8046C23.9291 29.3246 24.4374 31.0007 24.5896 32.727C24.4276 31.977 23.4481 30.777 22.5361 31.062C22.1476 31.182 22.0036 31.8525 21.7486 32.241C21.4266 32.7339 21.0293 33.1733 20.5711 33.543C20.6493 32.8158 20.6129 32.0809 20.4631 31.365C20.1901 32.487 19.6426 34.3485 18.2641 34.047C17.8049 33.9769 17.3746 33.7791 17.0224 33.4762C16.6702 33.1733 16.4102 32.7775 16.2721 32.334C16.0936 31.194 17.2981 29.8575 15.3616 29.763C11.4766 29.5725 12.3751 35.286 14.6686 36.7755C14.1415 36.8338 13.6273 36.9772 13.1461 37.2C14.6018 38.0459 16.2421 38.5236 17.9245 38.5914C19.6068 38.6592 21.2802 38.3152 22.7993 37.5892C24.3185 36.8632 25.6373 35.7772 26.6413 34.4256C27.6452 33.0739 28.3039 31.4976 28.5601 29.8335C29.0943 32.2678 28.7511 34.8127 27.5911 37.0185C27.1056 37.9406 26.4835 38.7841 25.7461 39.5205C25.2961 39.9705 24.4051 40.4655 24.1126 40.932C25.933 40.6913 27.712 40.2028 29.4001 39.48C27.6528 41.8609 25.3305 43.7601 22.6501 45C25.5282 44.7963 28.3104 43.8794 30.7457 42.332C33.1811 40.7847 35.193 38.6555 36.6001 36.1365C36.1517 38.6559 35.1557 41.0461 33.6826 43.1385C35.664 41.812 37.3497 40.0902 38.6339 38.0811C39.9181 36.0721 40.7731 33.8192 41.1451 31.464C41.5137 33.1882 41.6194 34.9582 41.4586 36.714C43.0868 34.4526 44.1868 31.8548 44.6777 29.1118C45.1686 26.3689 45.0379 23.5507 44.2951 20.865C43.7266 18.7774 42.8742 16.7777 41.7616 14.922C41.331 14.1989 40.8597 13.5008 40.3501 12.831C40.1506 12.5715 39.0841 11.622 39.0841 11.331C39.0751 11.36 39.0676 11.36 39.0616 11.331C39.0616 16.23 33.8116 19.2975 29.4151 18.0255C31.117 17.8919 32.7224 17.1817 33.9661 16.0122C35.2097 14.8428 36.0172 13.284 36.2551 11.5935C36.4557 9.88404 36.0609 8.15766 35.1371 6.7054C34.2132 5.25313 32.8155 4.16379 31.1821 3.621Z" fill="url(#paint0_linear_2569_136)"/>
<path d="M21.96 40.6706L24.465 39.1706C24.5949 39.6037 24.8515 39.988 25.2017 40.2741C25.5519 40.5601 25.9797 40.7348 26.43 40.7756C27.435 40.7756 28.08 40.3856 28.08 38.8406V28.3406H31.08V38.8406C31.1443 39.3845 31.1008 39.9357 30.952 40.4627C30.8032 40.9898 30.552 41.4824 30.2129 41.9124C29.8737 42.3424 29.4531 42.7013 28.9752 42.9688C28.4973 43.2362 27.9714 43.4069 27.4275 43.4711C27.116 43.5056 26.8016 43.5056 26.49 43.4711C25.5291 43.5224 24.5751 43.282 23.7533 42.7814C22.9315 42.2809 22.2802 41.5435 21.885 40.6661M32.82 40.3361L35.325 38.8361C35.6019 39.395 36.0296 39.8654 36.5597 40.194C37.0898 40.5227 37.7013 40.6966 38.325 40.6961C38.7805 40.8095 39.2624 40.7376 39.6649 40.496C40.0673 40.2544 40.3574 39.8629 40.4715 39.4076C40.482 39.3626 40.4925 39.3176 40.5 39.2711C40.5 38.2211 39.66 37.7711 38.265 37.2311L37.5 36.8996C35.28 35.9546 33.81 34.7696 33.81 32.2646C33.8187 31.1751 34.2597 30.1336 35.036 29.3691C35.8124 28.6046 36.8605 28.1796 37.95 28.1876C38.0715 28.1876 38.1915 28.1876 38.313 28.2056C39.2025 28.1368 40.0923 28.3339 40.8696 28.7719C41.6468 29.2099 42.2762 29.8691 42.678 30.6656L40.293 32.1656C40.137 31.7699 39.8637 31.4313 39.5098 31.1954C39.1559 30.9595 38.7383 30.8374 38.313 30.8456C38.139 30.8238 37.9625 30.8365 37.7934 30.8829C37.6244 30.9294 37.4662 31.0088 37.3278 31.1165C37.1895 31.2242 37.0737 31.3581 36.9872 31.5106C36.9006 31.6631 36.845 31.8311 36.8235 32.0051C36.8162 32.0583 36.8127 32.1119 36.813 32.1656C36.813 33.0806 37.383 33.4556 38.703 34.0256L39.468 34.3556C42 35.4806 43.5 36.6206 43.5 39.2006C43.5 41.7806 41.325 43.4756 38.415 43.4756C37.2793 43.5491 36.1466 43.2921 35.1537 42.7358C34.1609 42.1795 33.3503 41.3476 32.82 40.3406" fill="#F7DF1E"/>
<defs>
<linearGradient id="paint0_linear_2569_136" x1="23.9956" y1="45" x2="23.9956" y2="3" gradientUnits="userSpaceOnUse">
<stop stop-color="#FFB199"/>
<stop offset="1" stop-color="#FF0844"/>
</linearGradient>
</defs>
</svg>
