<svg width="48" height="48" viewBox="0 0 48 48" fill="none" xmlns="http://www.w3.org/2000/svg">
<g clip-path="url(#clip0_2569_168)">
<path d="M47.0923 28.743C46.8132 27.8978 46.0821 27.309 45.1367 27.1678C44.6908 27.1012 44.1803 27.1296 43.5761 27.2541C42.523 27.4714 41.7418 27.5541 41.1716 27.5701C43.3238 23.9365 45.0738 19.7929 46.0812 15.8923C47.7103 9.58523 46.8398 6.71196 45.8225 5.41232C43.1303 1.97232 39.2025 0.124321 34.4639 0.0677753C31.9361 0.0368662 29.717 0.535957 28.5594 0.894866C27.4816 0.704684 26.3227 0.598503 25.1067 0.578866C22.8272 0.542503 20.8132 1.03941 19.0923 2.06068C18.1396 1.7385 16.6105 1.28432 14.8447 0.994503C10.6916 0.312684 7.3443 0.843957 4.89593 2.57359C1.9312 4.66778 0.556841 8.30632 0.811023 13.3881C0.89175 15.0016 1.7943 19.9107 3.21539 24.5663C4.03211 27.2423 4.90302 29.4645 5.80393 31.1718C7.08157 33.5927 8.44866 35.0183 9.98339 35.5303C10.8436 35.8169 12.4065 36.0176 14.0503 34.6485C14.2587 34.9009 14.5367 35.1516 14.9056 35.3845C15.3741 35.68 15.947 35.9214 16.5192 36.0645C18.5812 36.58 20.5127 36.451 22.1605 35.7285C22.1707 36.0216 22.1785 36.3016 22.185 36.5434C22.1959 36.9356 22.2068 37.3201 22.2212 37.6798C22.3188 40.1114 22.4843 42.0021 22.9745 43.325C23.0014 43.3978 23.0376 43.5087 23.0758 43.6263C23.3203 44.375 23.7292 45.6285 24.7696 46.6101C25.8468 47.6271 27.1499 47.9389 28.3434 47.9389C28.9419 47.9389 29.513 47.8603 30.0139 47.753C31.7994 47.3703 33.8272 46.7874 35.2941 44.6987C36.681 42.7241 37.3552 39.7501 37.4772 35.0641C37.493 34.9316 37.5076 34.8051 37.5216 34.6845L37.5507 34.4369L37.8774 34.4656L37.9616 34.4712C39.7801 34.5541 42.0037 34.1685 43.3694 33.5341C44.4485 33.0334 47.9065 31.2078 47.0923 28.743Z" fill="black"/>
<path d="M43.9827 29.2242C38.5755 30.3396 38.2037 28.5089 38.2037 28.5089C43.9127 20.0375 46.2995 9.28419 44.24 6.65237C38.6211 -0.526717 28.8947 2.86856 28.7324 2.95656L28.6802 2.96601C27.6118 2.74419 26.4164 2.61219 25.0726 2.59019C22.626 2.55019 20.77 3.23165 19.3617 4.29965C19.3617 4.29965 2.01074 -2.84835 2.81784 13.2895C2.98947 16.7226 7.73856 39.2664 13.4029 32.4571C15.4733 29.9671 17.4738 27.8618 17.4738 27.8618C18.4673 28.5218 19.6567 28.8586 20.9037 28.7376L21.0006 28.6555C20.9704 28.9646 20.9842 29.2669 21.0393 29.6249C19.58 31.2553 20.0089 31.5415 17.0918 32.142C14.14 32.7504 15.874 33.8333 17.0062 34.1166C18.3787 34.4596 21.554 34.9458 23.6995 31.9424L23.614 32.2851C24.1857 32.7431 24.5871 35.2638 24.5198 37.5491C24.4526 39.8342 24.4077 41.4031 24.858 42.6286C25.3087 43.854 25.7577 46.6113 29.5926 45.7896C32.7967 45.1029 34.4573 43.3235 34.6884 40.3551C34.8522 38.2449 35.2233 38.5569 35.2466 36.6702L35.5442 35.7771C35.8873 32.9166 35.5987 31.9936 37.5727 32.4229L38.0527 32.4651C39.5055 32.5311 41.4073 32.2313 42.5235 31.7126C44.9267 30.5973 46.3522 28.7349 43.9824 29.2242H43.9827Z" fill="#336791"/>
<path d="M20.3775 14.8229C19.8902 14.7551 19.4489 14.8178 19.2257 14.9869C19.1002 15.082 19.0613 15.1922 19.0507 15.268C19.0227 15.4689 19.1635 15.6911 19.25 15.8056C19.4947 16.13 19.8522 16.3529 20.206 16.402C20.2573 16.4093 20.3084 16.4125 20.3591 16.4125C20.9491 16.4125 21.4857 15.9531 21.5329 15.614C21.592 15.1893 20.9755 14.906 20.3775 14.8229ZM36.52 14.8364C36.4735 14.5034 35.8811 14.4085 35.3189 14.4867C34.7575 14.5649 34.2131 14.8184 34.2586 15.152C34.2949 15.4114 34.7635 15.8544 35.318 15.8544C35.3649 15.8544 35.4122 15.8513 35.4598 15.8445C35.83 15.7933 36.1017 15.5582 36.2307 15.4227C36.4271 15.2162 36.5409 14.986 36.52 14.8364Z" fill="white"/>
<path d="M45.7821 29.0958C45.5759 28.4724 44.9122 28.2718 43.8097 28.4995C40.5361 29.1751 39.3637 28.7071 38.9788 28.4236C41.5233 24.5473 43.6166 19.8615 44.7459 15.4896C45.2808 13.4187 45.5762 11.4955 45.6004 9.92782C45.6272 8.20728 45.3341 6.94291 44.7297 6.17055C42.293 3.05691 38.7166 1.38673 34.3875 1.34091C31.4113 1.30746 28.8968 2.06909 28.4093 2.28328C27.3828 2.028 26.2637 1.87128 25.0453 1.85128C22.8112 1.81509 20.8799 2.35 19.281 3.44037C18.5864 3.18182 16.7915 2.56564 14.5964 2.212C10.8015 1.60109 7.78588 2.064 5.63388 3.58855C3.06606 5.40782 1.88061 8.65982 2.11024 13.254C2.18751 14.7996 3.06824 19.5545 4.45806 24.1082C6.28751 30.1016 8.27624 33.4946 10.3686 34.1926C10.6135 34.2742 10.8959 34.3313 11.2073 34.3313C11.9706 34.3313 12.9064 33.9873 13.8801 32.8167C15.0676 31.3921 16.2961 30.0021 17.5639 28.6484C18.3864 29.0898 19.2901 29.3364 20.2142 29.3611C20.2161 29.3853 20.2184 29.4095 20.2206 29.4335C20.0615 29.6232 19.9057 29.8156 19.7533 30.0107C19.113 30.8236 18.9797 30.9929 16.9184 31.4173C16.3321 31.5384 14.7748 31.8593 14.7519 32.9509C14.7272 34.1436 16.5928 34.6446 16.8053 34.6976C17.5461 34.8831 18.2597 34.9745 18.9402 34.9745C20.5953 34.9745 22.0519 34.4305 23.2159 33.378C23.1801 37.63 23.3573 41.8198 23.8679 43.0964C24.2861 44.1415 25.3075 46.6955 28.5341 46.6953C29.0075 46.6953 29.5286 46.6402 30.1019 46.5173C33.4693 45.7955 34.9317 44.3071 35.4973 41.0258C35.8001 39.2722 36.3195 35.0847 36.5639 32.8385C37.0795 32.9995 37.7433 33.0731 38.461 33.0729C39.9577 33.0729 41.6848 32.7549 42.7679 32.2522C43.9846 31.6871 46.1802 30.3005 45.7821 29.0958ZM37.7628 13.9176C37.7517 14.5807 37.6604 15.1827 37.5637 15.8111C37.4595 16.4869 37.3519 17.1856 37.3248 18.0338C37.2981 18.8593 37.4012 19.7175 37.5008 20.5475C37.7022 22.2238 37.909 23.9496 37.1088 25.6525C36.9759 25.417 36.8575 25.1736 36.7542 24.9236C36.6548 24.6825 36.4388 24.2953 36.1397 23.7593C34.9762 21.6727 32.2517 16.7865 33.6464 14.7927C34.0619 14.1993 35.1162 13.5891 37.7628 13.9176ZM34.5548 2.68364C38.4337 2.76928 41.5021 4.22037 43.6744 6.99637C45.3406 9.12564 43.5059 18.8142 38.1944 27.1725C38.141 27.1046 38.0873 27.0369 38.0333 26.9695L37.9661 26.8855C39.3386 24.6187 39.0702 22.376 38.8313 20.3876C38.7332 19.5716 38.6404 18.8009 38.6641 18.0769C38.6884 17.3096 38.7899 16.6515 38.8881 16.0151C39.0086 15.2309 39.1313 14.4195 39.0975 13.4629C39.1228 13.3625 39.133 13.244 39.1197 13.1033C39.0333 12.186 37.9861 9.44073 35.8515 6.956C34.6839 5.59691 32.9812 4.076 30.6562 3.05019C31.6562 2.84291 33.0237 2.64964 34.5548 2.68364ZM12.8497 31.96C11.777 33.2498 11.0362 33.0025 10.7926 32.9215C9.20533 32.392 7.36351 29.0371 5.7397 23.7171C4.33461 19.1138 3.51351 14.4849 3.44842 13.1869C3.24333 9.08182 4.23842 6.22091 6.40624 4.68346C9.93424 2.18164 15.7346 3.67909 18.0653 4.43855C18.0319 4.47164 17.997 4.50255 17.9639 4.53619C14.1392 8.39873 14.2299 14.998 14.2393 15.4015C14.239 15.5571 14.2521 15.7775 14.2699 16.0805C14.3357 17.1905 14.4582 19.2564 14.131 21.5958C13.827 23.7698 14.4972 25.8976 15.9693 27.4338C16.1204 27.5912 16.2792 27.7409 16.4452 27.8825C15.7899 28.5844 14.3657 30.1364 12.8497 31.96ZM16.9368 26.5067C15.7502 25.2685 15.2113 23.5464 15.4581 21.7813C15.8035 19.31 15.6761 17.1576 15.6075 16.0013C15.5979 15.8395 15.5893 15.6976 15.5844 15.5858C16.1432 15.0904 18.7324 13.7031 20.579 14.1262C21.4215 14.3191 21.935 14.8929 22.1484 15.8798C23.2532 20.9895 22.2946 23.1191 21.5244 24.8305C21.3657 25.1831 21.2157 25.5164 21.0877 25.8611L20.9884 26.1276C20.7372 26.8015 20.5033 27.428 20.3584 28.0229C19.097 28.0193 17.8699 27.4804 16.9368 26.5065V26.5067ZM17.1304 33.3976C16.7621 33.3056 16.4308 33.1458 16.2364 33.0133C16.3988 32.9369 16.6877 32.8329 17.1888 32.7296C19.6137 32.2305 19.9882 31.8782 20.8061 30.8398C20.9935 30.6016 21.2061 30.3318 21.5004 30.0031L21.5008 30.0027C21.9392 29.5118 22.1397 29.5951 22.5033 29.746C22.7981 29.8678 23.0852 30.2373 23.2015 30.6438C23.2566 30.8358 23.3184 31.2002 23.1161 31.4838C21.4077 33.8758 18.9182 33.8451 17.1304 33.3976ZM29.8212 45.2071C26.8546 45.8427 25.8042 44.3291 25.1121 42.5987C24.6653 41.4816 24.4457 36.4442 24.6015 30.8811C24.6035 30.8071 24.593 30.7356 24.5726 30.6684C24.5544 30.5355 24.5267 30.4042 24.4897 30.2753C24.2581 29.4658 23.6935 28.7887 23.0162 28.508C22.7472 28.3966 22.2533 28.192 21.6599 28.3438C21.7864 27.8224 22.0059 27.2335 22.2439 26.5958L22.3437 26.3276C22.4561 26.0253 22.5972 25.712 22.7462 25.3804C23.5522 23.5898 24.6561 21.1373 23.4581 15.5967C23.0093 13.5215 21.5108 12.508 19.2392 12.7435C17.8773 12.8844 16.6313 13.4338 16.0099 13.7489C15.8762 13.8165 15.7541 13.882 15.6399 13.9456C15.8133 11.8547 16.4686 7.94709 18.9199 5.47473C20.4633 3.91837 22.5188 3.14964 25.0232 3.19109C29.9577 3.27182 33.1221 5.80419 34.9079 7.91455C36.4468 9.73291 37.2801 11.5647 37.6126 12.5527C35.1117 12.2984 33.4108 12.792 32.5486 14.0247C30.6728 16.7062 33.5748 21.9105 34.9695 24.4118C35.2253 24.8702 35.4461 25.2664 35.5155 25.4347C35.9697 26.5355 36.5577 27.2704 36.987 27.8067C37.1186 27.9711 37.2462 28.1305 37.3433 28.2698C36.5859 28.4882 35.2253 28.9927 35.3493 31.5147C35.2493 32.7802 34.5382 38.7049 34.177 40.7982C33.7001 43.5636 32.6824 44.5936 29.8212 45.2073V45.2071ZM42.2037 31.0369C41.4292 31.3964 40.133 31.666 38.9017 31.724C37.5417 31.7876 36.8493 31.5716 36.6864 31.4387C36.6101 29.8671 37.195 29.7029 37.8141 29.5291C37.9113 29.5018 38.0062 29.4751 38.0979 29.4431C38.1548 29.4895 38.2172 29.5355 38.2855 29.5805C39.3786 30.302 41.3282 30.3798 44.0808 29.8116L44.111 29.8056C43.7397 30.1527 43.1044 30.6185 42.2037 31.0369Z" fill="white"/>
</g>
<defs>
<clipPath id="clip0_2569_168">
<rect width="48" height="48" fill="white"/>
</clipPath>
</defs>
</svg>
