<svg width="48" height="48" viewBox="0 0 48 48" fill="none" xmlns="http://www.w3.org/2000/svg">
<path d="M39.7436 9.4266C39.7106 9.1866 39.5003 9.05378 39.3266 9.03915C39.1531 9.02469 35.4828 8.75263 35.4828 8.75263C35.4828 8.75263 32.9337 6.22195 32.6539 5.94184C32.374 5.66189 31.8272 5.74704 31.615 5.80951C31.5838 5.81871 31.0581 5.98096 30.1885 6.25006C29.337 3.79976 27.8342 1.54803 25.1904 1.54803C25.1174 1.54803 25.0423 1.55099 24.9672 1.55526C24.2153 0.560906 23.2839 0.128906 22.4794 0.128906C16.3208 0.128906 13.3785 7.82781 12.4559 11.7401C10.0628 12.4817 8.36279 13.0089 8.14564 13.0771C6.80985 13.4961 6.76761 13.5382 6.59221 14.7969C6.46021 15.7498 2.96509 42.7792 2.96509 42.7792L30.1998 47.882L44.9565 44.6897C44.9565 44.6897 39.7762 9.6666 39.7436 9.4266ZM28.6832 6.71559L26.3787 7.42885C26.3796 7.26644 26.3804 7.10666 26.3804 6.93192C26.3804 5.40907 26.169 4.18293 25.8299 3.21093C27.1921 3.38189 28.0993 4.93187 28.6832 6.71559ZM24.14 3.51291C24.5187 4.46189 24.765 5.82381 24.765 7.66162C24.765 7.75565 24.7642 7.84162 24.7633 7.92858C23.2646 8.3928 21.6361 8.8968 20.0039 9.40244C20.9204 5.86556 22.6382 4.15729 24.14 3.51291ZM22.3102 1.7808C22.576 1.7808 22.8438 1.87104 23.1001 2.04743C21.1263 2.97619 19.0107 5.31537 18.1173 9.98666L14.3552 11.1518C15.4017 7.5888 17.8867 1.7808 22.3102 1.7808Z" fill="#95BF46"/>
<path d="M39.3266 9.03969C39.1532 9.02523 35.4828 8.75317 35.4828 8.75317C35.4828 8.75317 32.9337 6.22249 32.6539 5.94238C32.5492 5.83816 32.408 5.78473 32.2604 5.76172L30.2012 47.8822L44.9566 44.6902C44.9566 44.6902 39.7762 9.66714 39.7436 9.42714C39.7106 9.18714 39.5003 9.05432 39.3266 9.03969Z" fill="#5E8E3E"/>
<path d="M25.1905 17.1936L23.371 22.6061C23.371 22.6061 21.7768 21.7552 19.8226 21.7552C16.9577 21.7552 16.8135 23.5531 16.8135 24.0061C16.8135 26.4781 23.2574 27.4253 23.2574 33.2155C23.2574 37.7711 20.368 40.7045 16.4721 40.7045C11.797 40.7045 9.40625 37.7949 9.40625 37.7949L10.658 33.659C10.658 33.659 13.1156 35.7689 15.1893 35.7689C16.5443 35.7689 17.0955 34.7021 17.0955 33.9226C17.0955 30.698 11.8089 30.5542 11.8089 25.2556C11.8089 20.796 15.0098 16.4805 21.471 16.4805C23.9606 16.4805 25.1905 17.1936 25.1905 17.1936Z" fill="white"/>
</svg>
