<svg width="48" height="48" viewBox="0 0 48 48" fill="none" xmlns="http://www.w3.org/2000/svg">
<path d="M39.7051 8.55177C37.7385 5.85325 34.8389 3.9821 31.5698 3.30184C28.3007 2.62157 24.8955 3.18076 22.0156 4.87077L11.9401 11.1018C10.5896 11.9156 9.4263 13.0057 8.52645 14.3005C7.62661 15.5954 7.01054 17.0657 6.71862 18.6153C6.2396 21.2071 6.66312 23.8848 7.91862 26.2023C7.05822 27.4675 6.47028 28.8977 6.19212 30.4023C5.90579 31.9729 5.9444 33.5856 6.30559 35.1408C6.66677 36.6959 7.34286 38.1606 8.29212 39.4443C10.2588 42.1431 13.1582 44.0148 16.4273 44.6961C19.6964 45.3775 23.1021 44.8197 25.9831 43.1313L36.0601 36.9018C37.4102 36.0874 38.5732 34.9972 39.473 33.7024C40.3727 32.4077 40.9891 30.9376 41.2816 29.3883C41.7637 26.7945 41.34 24.1139 40.0816 21.7953C40.9429 20.5304 41.5314 19.1001 41.8096 17.5953C42.0959 16.0241 42.0568 14.4109 41.6949 12.8554C41.3329 11.2999 40.6557 9.83515 39.7051 8.55177Z" fill="#FF3E00"/>
<path d="M21.0331 39.9613C19.4577 40.3654 17.7972 40.287 16.2669 39.7363C14.7366 39.1856 13.4069 38.188 12.4501 36.8728C11.8772 36.1018 11.4687 35.2214 11.2499 34.2861C11.0311 33.3507 11.0067 32.3805 11.1781 31.4353C11.2351 31.1249 11.3149 30.8191 11.4166 30.5203L11.6071 29.9578L12.1231 30.3148C13.3209 31.1679 14.6534 31.8139 16.0651 32.2258L16.4326 32.3353L16.3951 32.6908C16.3519 33.2079 16.4962 33.7233 16.8016 34.1428C17.0887 34.5488 17.4927 34.8577 17.9599 35.0281C18.427 35.1986 18.935 35.2225 19.4161 35.0968C19.6335 35.0403 19.8412 34.9519 20.0326 34.8343L30.0826 28.6033C30.3273 28.455 30.5382 28.257 30.7018 28.0221C30.8653 27.7873 30.9778 27.5208 31.0321 27.2398C31.0862 26.9565 31.0816 26.6651 31.0186 26.3837C30.9557 26.1022 30.8357 25.8366 30.6661 25.6033C30.3775 25.2065 29.9765 24.9055 29.5149 24.7392C29.0533 24.5728 28.5525 24.5488 28.0771 24.6703C27.8586 24.7269 27.6498 24.8159 27.4576 24.9343L23.5996 27.3103C22.9655 27.7027 22.2757 27.9971 21.5536 28.1833C19.9769 28.5884 18.3149 28.5104 16.7832 27.9594C15.2514 27.4084 13.9205 26.4099 12.9631 25.0933C12.394 24.3198 11.9897 23.4377 11.7753 22.5016C11.5609 21.5656 11.5409 20.5954 11.7166 19.6513C11.8936 18.7213 12.2641 17.8388 12.8039 17.061C13.3436 16.2833 14.0408 15.6275 14.8501 15.1363L24.9121 8.90532C25.5463 8.51339 26.2361 8.21957 26.9581 8.03382C28.5348 7.62784 30.1972 7.70525 31.7293 8.256C33.2615 8.80676 34.5927 9.80542 35.5501 11.1223C36.1229 11.8934 36.5314 12.7738 36.7502 13.7091C36.969 14.6444 36.9934 15.6147 36.8221 16.5598C36.7652 16.8703 36.6855 17.1761 36.5836 17.4748L36.3931 18.0373L35.8771 17.6818C34.68 16.8276 33.3473 16.1815 31.9351 15.7708L31.5676 15.6598L31.6051 15.3043C31.6483 14.787 31.5034 14.2715 31.1971 13.8523C30.9093 13.455 30.5086 13.1536 30.0471 12.9872C29.5856 12.8208 29.0847 12.7971 28.6096 12.9193C28.3919 12.9757 28.1841 13.0647 27.9931 13.1833L17.9101 19.3933C17.6653 19.5409 17.4545 19.7385 17.2914 19.9732C17.1283 20.2079 17.0166 20.4745 16.9636 20.7553C16.9081 21.0388 16.912 21.3307 16.975 21.6127C17.038 21.8946 17.1588 22.1604 17.3296 22.3933C17.6184 22.7898 18.0195 23.0906 18.4811 23.2566C18.9426 23.4227 19.4434 23.4465 19.9186 23.3248C20.1368 23.2681 20.3455 23.1796 20.5381 23.0623L24.3811 20.6848C25.0149 20.2922 25.7048 19.9984 26.4271 19.8133C28.0038 19.4082 29.6659 19.486 31.1979 20.0367C32.7299 20.5874 34.0611 21.5855 35.0191 22.9018C35.5905 23.6735 35.9975 24.5542 36.215 25.4895C36.4325 26.4248 36.4558 27.3947 36.2836 28.3393C36.1078 29.2704 35.7379 30.154 35.198 30.9327C34.6581 31.7113 33.9604 32.3676 33.1501 32.8588L23.0896 39.0898C22.4557 39.4824 21.7659 39.7763 21.0436 39.9613" fill="white"/>
</svg>
