<svg width="48" height="48" viewBox="0 0 48 48" fill="none" xmlns="http://www.w3.org/2000/svg">
<g clip-path="url(#clip0_2565_124)">
<path d="M0 5.25C0 2.3505 2.35051 0 5.25 0H42.75C45.6495 0 48 2.35051 48 5.25V11.25C48 12.4926 46.9926 13.5 45.75 13.5C44.5074 13.5 43.5 12.4926 43.5 11.25V5.25C43.5 4.83579 43.1643 4.5 42.75 4.5H5.25C4.83579 4.5 4.5 4.83579 4.5 5.25V42.75C4.5 43.1643 4.83579 43.5 5.25 43.5H45.75C46.9926 43.5 48 44.5074 48 45.75C48 46.9926 46.9926 48 45.75 48H5.25C2.3505 48 0 45.6495 0 42.75V5.25ZM14.25 19.5C14.25 18.2574 15.2574 17.25 16.5 17.25H27.75C28.9926 17.25 30 18.2574 30 19.5C30 20.7426 28.9926 21.75 27.75 21.75H24.75V37.5C24.75 38.7426 23.7426 39.75 22.5 39.75C21.2574 39.75 20.25 38.7426 20.25 37.5V21.75H16.5C15.2574 21.75 14.25 20.7426 14.25 19.5ZM33.8271 19.7403C35.0832 18.2449 37.0521 17.25 39.75 17.25C42.2547 17.25 44.1444 18.107 45.4182 19.4544C46.2717 20.3575 46.2315 21.7816 45.3285 22.6352C44.4255 23.4887 43.0014 23.4486 42.1479 22.5456C41.8182 22.1969 41.1612 21.75 39.75 21.75C38.2479 21.75 37.5918 22.2551 37.2729 22.6347C36.8802 23.1019 36.75 23.688 36.75 24C36.75 24.312 36.8802 24.898 37.2729 25.3653C37.5918 25.7449 38.2479 26.25 39.75 26.25C39.9771 26.25 40.1964 26.2836 40.4028 26.3462C42.3921 26.6294 43.8957 27.5175 44.9229 28.7403C46.1052 30.1479 46.5 31.812 46.5 33C46.5 34.188 46.1052 35.8521 44.9229 37.2597C43.6668 38.7552 41.6979 39.75 39 39.75C36.4953 39.75 34.6056 38.8929 33.3318 37.5456C32.4783 36.6426 32.5185 35.2185 33.4215 34.3647C34.3245 33.5112 35.7486 33.5514 36.6021 34.4544C36.9318 34.803 37.5888 35.25 39 35.25C40.5021 35.25 41.1582 34.7448 41.4771 34.3653C41.8698 33.8979 42 33.312 42 33C42 32.688 41.8698 32.1021 41.4771 31.6347C41.1582 31.2552 40.5021 30.75 39 30.75C38.7729 30.75 38.5536 30.7164 38.3472 30.6537C36.3579 30.3705 34.8543 29.4825 33.8271 28.2597C32.6448 26.852 32.25 25.188 32.25 24C32.25 22.812 32.6448 21.1481 33.8271 19.7403Z" fill="white"/>
</g>
<defs>
<clipPath id="clip0_2565_124">
<rect width="48" height="48" fill="white"/>
</clipPath>
</defs>
</svg>
